<mxfile host="app.diagrams.net" modified="2020-11-06T06:33:36.925Z" agent="5.0 (Windows NT 10.0; Win64; x64) AppleWebKit/537.36 (KHTML, like Gecko) Chrome/86.0.4240.183 Safari/537.36" etag="5hA0AQY-79P_nw4SVwTb" version="13.9.2" type="github">
  <diagram id="BoUAAAzzEhgEYpUWboQW" name="Page-1">
    <mxGraphModel dx="1066" dy="759" grid="1" gridSize="10" guides="1" tooltips="1" connect="1" arrows="1" fold="1" page="1" pageScale="1" pageWidth="850" pageHeight="1100" math="0" shadow="0">
      <root>
        <mxCell id="0" />
        <mxCell id="1" parent="0" />
        <mxCell id="z3MwqPS4IQPkSL49e8nf-7" style="edgeStyle=orthogonalEdgeStyle;rounded=0;orthogonalLoop=1;jettySize=auto;html=1;exitX=0.5;exitY=1;exitDx=0;exitDy=0;" edge="1" parent="1" source="z3MwqPS4IQPkSL49e8nf-1" target="z3MwqPS4IQPkSL49e8nf-5">
          <mxGeometry relative="1" as="geometry" />
        </mxCell>
        <mxCell id="z3MwqPS4IQPkSL49e8nf-8" style="edgeStyle=orthogonalEdgeStyle;rounded=0;orthogonalLoop=1;jettySize=auto;html=1;exitX=0.5;exitY=1;exitDx=0;exitDy=0;entryX=0.5;entryY=0;entryDx=0;entryDy=0;" edge="1" parent="1" source="z3MwqPS4IQPkSL49e8nf-1" target="z3MwqPS4IQPkSL49e8nf-2">
          <mxGeometry relative="1" as="geometry" />
        </mxCell>
        <mxCell id="z3MwqPS4IQPkSL49e8nf-10" style="edgeStyle=orthogonalEdgeStyle;rounded=0;orthogonalLoop=1;jettySize=auto;html=1;exitX=0.5;exitY=1;exitDx=0;exitDy=0;entryX=0.5;entryY=0;entryDx=0;entryDy=0;" edge="1" parent="1" source="z3MwqPS4IQPkSL49e8nf-1" target="z3MwqPS4IQPkSL49e8nf-9">
          <mxGeometry relative="1" as="geometry" />
        </mxCell>
        <mxCell id="z3MwqPS4IQPkSL49e8nf-12" style="edgeStyle=orthogonalEdgeStyle;rounded=0;orthogonalLoop=1;jettySize=auto;html=1;exitX=0.5;exitY=1;exitDx=0;exitDy=0;entryX=0.5;entryY=0;entryDx=0;entryDy=0;" edge="1" parent="1" source="z3MwqPS4IQPkSL49e8nf-1" target="z3MwqPS4IQPkSL49e8nf-11">
          <mxGeometry relative="1" as="geometry" />
        </mxCell>
        <mxCell id="z3MwqPS4IQPkSL49e8nf-1" value="Portfolio" style="rounded=0;whiteSpace=wrap;html=1;" vertex="1" parent="1">
          <mxGeometry x="330" y="80" width="120" height="60" as="geometry" />
        </mxCell>
        <mxCell id="z3MwqPS4IQPkSL49e8nf-2" value="Home / index.html" style="rounded=1;whiteSpace=wrap;html=1;" vertex="1" parent="1">
          <mxGeometry x="120" y="190" width="120" height="60" as="geometry" />
        </mxCell>
        <mxCell id="z3MwqPS4IQPkSL49e8nf-5" value="About / about.html" style="rounded=1;whiteSpace=wrap;html=1;" vertex="1" parent="1">
          <mxGeometry x="280" y="190" width="120" height="60" as="geometry" />
        </mxCell>
        <mxCell id="z3MwqPS4IQPkSL49e8nf-9" value="" style="rounded=1;whiteSpace=wrap;html=1;" vertex="1" parent="1">
          <mxGeometry x="450" y="190" width="120" height="60" as="geometry" />
        </mxCell>
        <mxCell id="z3MwqPS4IQPkSL49e8nf-11" value="" style="rounded=1;whiteSpace=wrap;html=1;" vertex="1" parent="1">
          <mxGeometry x="620" y="190" width="120" height="60" as="geometry" />
        </mxCell>
      </root>
    </mxGraphModel>
  </diagram>
</mxfile>
